<svg xmlns="http://www.w3.org/2000/svg" viewBox="0 0 128 128">
  <defs>
    <linearGradient id="shell" x1="16" y1="28" x2="112" y2="108" gradientUnits="userSpaceOnUse">
      <stop offset="0" stop-color="#0b7df0"/>
      <stop offset="0.52" stop-color="#0862d8"/>
      <stop offset="1" stop-color="#063a9c"/>
    </linearGradient>
    <linearGradient id="slot" x1="30" y1="49" x2="103" y2="84" gradientUnits="userSpaceOnUse">
      <stop offset="0" stop-color="#9feaff"/>
      <stop offset="0.58" stop-color="#6fd0ff"/>
      <stop offset="1" stop-color="#1c82ed"/>
    </linearGradient>
    <linearGradient id="bolt" x1="82" y1="18" x2="65" y2="115" gradientUnits="userSpaceOnUse">
      <stop offset="0" stop-color="#ffd533"/>
      <stop offset="0.48" stop-color="#ffc400"/>
      <stop offset="1" stop-color="#ffb000"/>
    </linearGradient>
    <filter id="shadow" x="-20%" y="-20%" width="140%" height="140%" color-interpolation-filters="sRGB">
      <feDropShadow dx="0" dy="7" stdDeviation="7" flood-color="#05205a" flood-opacity="0.28"/>
    </filter>
    <filter id="boltShadow" x="-25%" y="-25%" width="150%" height="150%" color-interpolation-filters="sRGB">
      <feDropShadow dx="0" dy="5" stdDeviation="4" flood-color="#7a5600" flood-opacity="0.25"/>
    </filter>
  </defs>

  <rect width="128" height="128" rx="28" fill="#f8fbff"/>

  <g filter="url(#shadow)">
    <rect x="12" y="42" width="104" height="63" rx="19" fill="url(#shell)"/>
    <rect x="21" y="52" width="86" height="38" rx="14" fill="url(#slot)" opacity="0.95"/>
    <circle cx="39" cy="71" r="9" fill="#ffffff"/>
    <rect x="31" y="91" width="63" height="8" rx="4" fill="#0a51c5" opacity="0.34"/>
  </g>

  <path
    d="M78 18h31c6.3 0 9.9 7.2 6.2 12.3L96.1 57.4h17.6c6.8 0 10.2 8.2 5.4 13l-42 42.2c-5.4 5.4-14.5 0-12.4-7.4l8.6-29.3H55.2c-5.3 0-9-5.3-7.2-10.3l22.8-42.2c1.1-3.2 4.1-5.4 7.2-5.4z"
    fill="url(#bolt)"
    filter="url(#boltShadow)"
  />
</svg>
